<?xml version="1.0" encoding="UTF-8" standalone="no"?>
<!DOCTYPE svg PUBLIC "-//W3C//DTD SVG 1.1//EN"
 "http://www.w3.org/Graphics/SVG/1.1/DTD/svg11.dtd">
<!-- Generated by graphviz version 2.44.0 (0)
 -->
<!-- Title: G Pages: 1 -->
<svg width="420pt" height="356pt"
 viewBox="0.00 0.00 420.00 356.00" xmlns="http://www.w3.org/2000/svg" xmlns:xlink="http://www.w3.org/1999/xlink">
<g id="graph0" class="graph" transform="scale(1 1) rotate(0) translate(4 352)">
<title>G</title>
<polygon fill="white" stroke="transparent" points="-4,4 -4,-352 416,-352 416,4 -4,4"/>
<g id="clust1" class="cluster">
<title>cluster_Global</title>
<path fill="none" stroke="gray" d="M20,-8C20,-8 392,-8 392,-8 398,-8 404,-14 404,-20 404,-20 404,-328 404,-328 404,-334 398,-340 392,-340 392,-340 20,-340 20,-340 14,-340 8,-334 8,-328 8,-328 8,-20 8,-20 8,-14 14,-8 20,-8"/>
<text text-anchor="middle" x="206" y="-327.2" font-family="Times-Roman" font-size="11.00" fill="gray">Global</text>
</g>
<g id="clust2" class="cluster">
<title>cluster_\src</title>
<path fill="none" stroke="gray" d="M28,-16C28,-16 384,-16 384,-16 390,-16 396,-22 396,-28 396,-28 396,-300 396,-300 396,-306 390,-312 384,-312 384,-312 28,-312 28,-312 22,-312 16,-306 16,-300 16,-300 16,-28 16,-28 16,-22 22,-16 28,-16"/>
<text text-anchor="middle" x="206" y="-299.2" font-family="Times-Roman" font-size="11.00" fill="gray">src</text>
</g>
<g id="clust3" class="cluster">
<title>cluster_\src\Service</title>
<path fill="none" stroke="gray" d="M36,-104C36,-104 376,-104 376,-104 382,-104 388,-110 388,-116 388,-116 388,-272 388,-272 388,-278 382,-284 376,-284 376,-284 36,-284 36,-284 30,-284 24,-278 24,-272 24,-272 24,-116 24,-116 24,-110 30,-104 36,-104"/>
<text text-anchor="middle" x="206" y="-271.2" font-family="Times-Roman" font-size="11.00" fill="gray">Service</text>
</g>
<g id="clust4" class="cluster">
<title>cluster_\src\Entity</title>
<path fill="none" stroke="gray" d="M284.5,-24C284.5,-24 330.5,-24 330.5,-24 336.5,-24 342.5,-30 342.5,-36 342.5,-36 342.5,-84 342.5,-84 342.5,-90 336.5,-96 330.5,-96 330.5,-96 284.5,-96 284.5,-96 278.5,-96 272.5,-90 272.5,-84 272.5,-84 272.5,-36 272.5,-36 272.5,-30 278.5,-24 284.5,-24"/>
<text text-anchor="middle" x="307.5" y="-83.2" font-family="Times-Roman" font-size="11.00" fill="gray">Entity</text>
</g>
<!-- \\src\\Service\\PasswordService -->
<g id="node1" class="node">
<title>\\src\\Service\\PasswordService</title>
<polygon fill="none" stroke="black" points="366.5,-256 248.5,-256 248.5,-220 366.5,-220 366.5,-256"/>
<text text-anchor="middle" x="307.5" y="-235.2" font-family="Courier" font-size="11.00">PasswordService</text>
</g>
<!-- \\src\\Service\\PasswordInterface -->
<g id="node5" class="node">
<title>\\src\\Service\\PasswordInterface</title>
<polygon fill="none" stroke="black" points="163,-256 32,-256 32,-220 163,-220 163,-256"/>
<text text-anchor="middle" x="97.5" y="-235.2" font-family="Courier" font-size="11.00">PasswordInterface</text>
</g>
<!-- \\src\\Service\\PasswordService&#45;&gt;\\src\\Service\\PasswordInterface -->
<g id="edge1" class="edge">
<title>\\src\\Service\\PasswordService&#45;&gt;\\src\\Service\\PasswordInterface</title>
<path fill="none" stroke="black" stroke-dasharray="1,5" d="M248.28,-238C225.05,-238 198,-238 173.33,-238"/>
<polygon fill="none" stroke="black" points="173.29,-234.5 163.29,-238 173.29,-241.5 173.29,-234.5"/>
</g>
<!-- \\src\\Service\\EmailService -->
<g id="node2" class="node">
<title>\\src\\Service\\EmailService</title>
<polygon fill="none" stroke="black" points="356.5,-202 258.5,-202 258.5,-166 356.5,-166 356.5,-202"/>
<text text-anchor="middle" x="307.5" y="-181.2" font-family="Courier" font-size="11.00">EmailService</text>
</g>
<!-- \\src\\Service\\EmailInterface -->
<g id="node4" class="node">
<title>\\src\\Service\\EmailInterface</title>
<polygon fill="none" stroke="black" points="153,-202 42,-202 42,-166 153,-166 153,-202"/>
<text text-anchor="middle" x="97.5" y="-181.2" font-family="Courier" font-size="11.00">EmailInterface</text>
</g>
<!-- \\src\\Service\\EmailService&#45;&gt;\\src\\Service\\EmailInterface -->
<g id="edge2" class="edge">
<title>\\src\\Service\\EmailService&#45;&gt;\\src\\Service\\EmailInterface</title>
<path fill="none" stroke="black" stroke-dasharray="1,5" d="M258.26,-184C230.01,-184 193.97,-184 163.27,-184"/>
<polygon fill="none" stroke="black" points="163.08,-180.5 153.08,-184 163.08,-187.5 163.08,-180.5"/>
</g>
<!-- \\src\\Service\\AuthenticateManager -->
<g id="node3" class="node">
<title>\\src\\Service\\AuthenticateManager</title>
<polygon fill="none" stroke="black" points="380,-148 235,-148 235,-112 380,-112 380,-148"/>
<text text-anchor="middle" x="307.5" y="-127.2" font-family="Courier" font-size="11.00">AuthenticateManager</text>
</g>
<!-- \\src\\Entity\\User -->
<g id="node6" class="node">
<title>\\src\\Entity\\User</title>
<polygon fill="none" stroke="black" points="334.5,-68 280.5,-68 280.5,-32 334.5,-32 334.5,-68"/>
<text text-anchor="middle" x="307.5" y="-47.2" font-family="Courier" font-size="11.00">User</text>
</g>
</g>
</svg>
