<?xml version="1.0" encoding="UTF-8" standalone="no"?>
<!DOCTYPE svg PUBLIC "-//W3C//DTD SVG 1.1//EN"
 "http://www.w3.org/Graphics/SVG/1.1/DTD/svg11.dtd">
<!-- Generated by graphviz version 2.44.0 (0)
 -->
<!-- Title: G Pages: 1 -->
<svg width="346pt" height="222pt"
 viewBox="0.00 0.00 346.00 222.00" xmlns="http://www.w3.org/2000/svg" xmlns:xlink="http://www.w3.org/1999/xlink">
<g id="graph0" class="graph" transform="scale(1 1) rotate(0) translate(4 218)">
<title>G</title>
<polygon fill="white" stroke="transparent" points="-4,4 -4,-218 342,-218 342,4 -4,4"/>
<g id="clust1" class="cluster">
<title>cluster_Global</title>
<path fill="none" stroke="gray" d="M20,-8C20,-8 318,-8 318,-8 324,-8 330,-14 330,-20 330,-20 330,-194 330,-194 330,-200 324,-206 318,-206 318,-206 20,-206 20,-206 14,-206 8,-200 8,-194 8,-194 8,-20 8,-20 8,-14 14,-8 20,-8"/>
<text text-anchor="middle" x="169" y="-193.2" font-family="Times-Roman" font-size="11.00" fill="gray">Global</text>
</g>
<g id="clust2" class="cluster">
<title>cluster_\src</title>
<path fill="none" stroke="gray" d="M28,-16C28,-16 310,-16 310,-16 316,-16 322,-22 322,-28 322,-28 322,-166 322,-166 322,-172 316,-178 310,-178 310,-178 28,-178 28,-178 22,-178 16,-172 16,-166 16,-166 16,-28 16,-28 16,-22 22,-16 28,-16"/>
<text text-anchor="middle" x="169" y="-165.2" font-family="Times-Roman" font-size="11.00" fill="gray">src</text>
</g>
<g id="clust3" class="cluster">
<title>cluster_\src\Service</title>
<path fill="none" stroke="gray" d="M36,-24C36,-24 302,-24 302,-24 308,-24 314,-30 314,-36 314,-36 314,-138 314,-138 314,-144 308,-150 302,-150 302,-150 36,-150 36,-150 30,-150 24,-144 24,-138 24,-138 24,-36 24,-36 24,-30 30,-24 36,-24"/>
<text text-anchor="middle" x="169" y="-137.2" font-family="Times-Roman" font-size="11.00" fill="gray">Service</text>
</g>
<!-- \\src\\Service\\Password -->
<g id="node1" class="node">
<title>\\src\\Service\\Password</title>
<polygon fill="none" stroke="black" points="306,-122 235,-122 235,-86 306,-86 306,-122"/>
<text text-anchor="middle" x="270.5" y="-101.2" font-family="Courier" font-size="11.00">Password</text>
</g>
<!-- \\src\\Service\\PasswordInterface -->
<g id="node4" class="node">
<title>\\src\\Service\\PasswordInterface</title>
<polygon fill="none" stroke="black" points="163,-122 32,-122 32,-86 163,-86 163,-122"/>
<text text-anchor="middle" x="97.5" y="-101.2" font-family="Courier" font-size="11.00">PasswordInterface</text>
</g>
<!-- \\src\\Service\\Password&#45;&gt;\\src\\Service\\PasswordInterface -->
<g id="edge1" class="edge">
<title>\\src\\Service\\Password&#45;&gt;\\src\\Service\\PasswordInterface</title>
<path fill="none" stroke="black" stroke-dasharray="1,5" d="M234.9,-104C217.12,-104 194.73,-104 173.25,-104"/>
<polygon fill="none" stroke="black" points="173.14,-100.5 163.14,-104 173.14,-107.5 173.14,-100.5"/>
</g>
<!-- \\src\\Service\\Email -->
<g id="node2" class="node">
<title>\\src\\Service\\Email</title>
<polygon fill="none" stroke="black" points="297.5,-68 243.5,-68 243.5,-32 297.5,-32 297.5,-68"/>
<text text-anchor="middle" x="270.5" y="-47.2" font-family="Courier" font-size="11.00">Email</text>
</g>
<!-- \\src\\Service\\EmailInterface -->
<g id="node3" class="node">
<title>\\src\\Service\\EmailInterface</title>
<polygon fill="none" stroke="black" points="153,-68 42,-68 42,-32 153,-32 153,-68"/>
<text text-anchor="middle" x="97.5" y="-47.2" font-family="Courier" font-size="11.00">EmailInterface</text>
</g>
<!-- \\src\\Service\\Email&#45;&gt;\\src\\Service\\EmailInterface -->
<g id="edge2" class="edge">
<title>\\src\\Service\\Email&#45;&gt;\\src\\Service\\EmailInterface</title>
<path fill="none" stroke="black" stroke-dasharray="1,5" d="M243.16,-50C221.88,-50 191.02,-50 163.26,-50"/>
<polygon fill="none" stroke="black" points="163.19,-46.5 153.19,-50 163.19,-53.5 163.19,-46.5"/>
</g>
</g>
</svg>
